<svg height="96" width="96" xmlns="http://www.w3.org/2000/svg"><circle style="-inkscape-stroke:hairline" cx="48" cy="48" r="48" fill="#003e78" vector-effect="non-scaling-stroke"/><path d="M47.92 18.68s-.44 6.58-2.58 8.73C43.19 29.56 36.6 30 36.6 30s6.59.43 8.74 2.58c2.14 2.15 2.58 8.73 2.58 8.73s.44-6.58 2.58-8.73c2.15-2.15 8.74-2.58 8.74-2.58s-6.59-.44-8.74-2.59c-2.14-2.15-2.58-8.73-2.58-8.73Zm-35.65 27.8-6.5 14.83h2.5l4.21-10.26 3.5 8.54h-3.2l-.54 1.72h6.96L12.7 46.5zm13.72 0c-1.38 0-2.45.36-3.3 1.07a3.28 3.28 0 0 0-1.24 2.73c0 .8.25 1.48.8 2.13.54.65 1.4 1.25 2.6 1.78l1.65.75c.8.37 1.35.66 1.72 1 .4.35.58.88.58 1.44 0 .67-.28 1.3-.8 1.7-.52.4-1.2.58-1.97.58-1.46 0-2.77-.75-3.86-2.04l-1.3.97a6.07 6.07 0 0 0 1.96 1.89c.95.55 2 .83 3.2.83a5.2 5.2 0 0 0 3.51-1.14 3.52 3.52 0 0 0 1.32-2.91c0-.92-.26-1.62-.77-2.2a7.88 7.88 0 0 0-2.7-1.78l-1.75-.78a5.76 5.76 0 0 1-1.58-.93 1.87 1.87 0 0 1-.56-1.36c0-.62.28-1.2.77-1.56a2.85 2.85 0 0 1 1.72-.51c.23 0 .44.04.67.08l1.68-1.2a5.28 5.28 0 0 0-2.35-.54zm7.5 0-2.51 1.8h3.9v13.03h2.11V48.3h5.14v-1.8zm11.67 0v14.83h2.12v-5.64h3.26l4.14 5.64h2.27l-4.27-5.91.6-.3a4.3 4.3 0 0 0 2.5-4.04 4.1 4.1 0 0 0-1.43-3.3 5.42 5.42 0 0 0-3.76-1.28zm2.12 1.73h3.3c.85 0 1.6.26 2.16.79.55.53.84 1.26.84 2.06 0 .82-.27 1.55-.81 2.08-.55.54-1.32.8-2.18.8h-3.31V48.8zm21.78-1.73v8.87c0 1.23-.36 2.28-1.1 3.03a4.01 4.01 0 0 1-2.92 1.11 4.02 4.02 0 0 1-2.9-1.1A4.13 4.13 0 0 1 61 55.35v-6.08l-2.06-1.55v7.4a6 6 0 0 0 1.7 4.5 5.89 5.89 0 0 0 4.39 1.7 5.9 5.9 0 0 0 4.37-1.7 5.99 5.99 0 0 0 1.71-4.5v-8.64zm5.25 0v14.83h2.42v-8.59l5.24 6.56h.6l5.25-6.56v7.88l2.41-2.19V46.5h-.3l-7.66 9.8-7.65-9.8z" fill="#fff"/></svg>