<svg viewBox="0 0 512 512"><path fill="#003e78" d="M256 0C196.888 0 90.39 9.374 65.93 18.55c-24.46 9.178-37.297 19.396-47.38 50.104C8.47 99.363 0 196.888 0 256c0 59.112 9.374 165.61 18.55 190.07 9.178 24.46 19.396 37.297 50.104 47.38C99.363 503.53 196.888 512 256 512c59.112 0 165.61-9.374 190.07-18.55 24.46-9.178 37.297-19.396 47.38-50.104C503.53 412.637 512 315.112 512 256c0-59.112-9.374-165.61-18.55-190.07-9.178-24.46-19.396-37.297-50.104-47.38C412.637 8.47 315.112 0 256 0z"/><path fill="#fff" d="M255.582 104.65s-2.298 34.361-13.473 45.59c-11.228 11.227-45.642 13.525-45.642 13.525s34.414 2.245 45.642 13.473c11.175 11.228 13.473 45.59 13.473 45.59s2.298-34.362 13.474-45.59c11.227-11.228 45.642-13.473 45.642-13.473s-34.415-2.298-45.642-13.526c-11.176-11.228-13.474-45.59-13.474-45.59ZM69.411 249.826l-33.945 77.445h13.056l21.985-53.58 18.278 44.598H72.074l-2.82 8.982h36.347L71.656 249.93Zm71.648 0c-7.206 0-12.794 1.88-17.233 5.587a17.129 17.129 0 0 0-6.476 14.257c0 4.178 1.306 7.729 4.178 11.123 2.82 3.395 7.311 6.528 13.578 9.296l8.617 3.916c4.177 1.933 7.05 3.447 8.982 5.223 2.089 1.827 3.029 4.595 3.029 7.52 0 3.498-1.463 6.788-4.178 8.877-2.716 2.09-6.267 3.03-10.288 3.03-7.624 0-14.465-3.917-20.158-10.654l-6.788 5.065a31.699 31.699 0 0 0 10.235 9.87c4.961 2.873 10.445 4.335 16.711 4.335a27.155 27.155 0 0 0 18.33-5.953 18.382 18.382 0 0 0 6.893-15.197c0-4.805-1.357-8.46-4.02-11.489a41.151 41.151 0 0 0-14.1-9.295l-9.14-4.074a30.08 30.08 0 0 1-8.25-4.856 9.766 9.766 0 0 1-2.925-7.103c0-3.237 1.462-6.266 4.021-8.146a14.883 14.883 0 0 1 8.982-2.664c1.201 0 2.298.21 3.5.418l8.772-6.266a27.573 27.573 0 0 0-12.272-2.82zm39.167 0-13.108 9.4h20.367v68.045h11.019V259.33h26.842v-9.4zm60.943 0v77.445h11.071v-29.453h17.024l21.62 29.453h11.855l-22.3-30.863 3.134-1.567a22.455 22.455 0 0 0 13.056-21.098 21.411 21.411 0 0 0-7.468-17.233 28.304 28.304 0 0 0-19.635-6.684zm11.071 9.034h17.233c4.44 0 8.356 1.358 11.28 4.126 2.872 2.767 4.387 6.58 4.387 10.757 0 4.282-1.41 8.095-4.23 10.862-2.872 2.82-6.893 4.178-11.384 4.178H252.24v-26.842zm113.74-9.034v46.32c0 6.424-1.88 11.907-5.745 15.824a20.941 20.941 0 0 1-15.249 5.796 20.993 20.993 0 0 1-15.144-5.744 21.568 21.568 0 0 1-5.953-15.876v-31.75l-10.758-8.095v38.644a31.333 31.333 0 0 0 8.878 23.5 30.759 30.759 0 0 0 22.925 8.878 30.811 30.811 0 0 0 22.821-8.878 31.281 31.281 0 0 0 8.93-23.5v-45.12zm27.416 0v77.445h12.638v-44.859l27.364 34.258h3.134l27.416-34.258v41.151l12.586-11.437V249.93h-1.567l-40.002 51.178-39.95-51.178z"/></svg>