<svg height="96" width="96" xmlns="http://www.w3.org/2000/svg"><path d="M96 96H0V0h96z" fill="#003e78"/><path d="M47.92 26.675s-.435 6.589-2.583 8.736c-2.147 2.148-8.736 2.584-8.736 2.584s6.59.436 8.736 2.583c2.148 2.147 2.584 8.736 2.584 8.736s.436-6.589 2.583-8.736c2.147-2.147 8.736-2.583 8.736-2.583s-6.589-.436-8.736-2.584c-2.147-2.147-2.583-8.736-2.583-8.736zM12.274 54.491l-6.506 14.83h2.496l4.217-10.258 3.495 8.535H12.79l-.553 1.723h6.96l-6.488-14.83Zm13.713 0c-1.375.001-2.443.362-3.297 1.072-.848.705-1.243 1.556-1.243 2.723 0 .798.253 1.48.8 2.13.547.649 1.405 1.254 2.596 1.783l1.663.75h.004c.8.37 1.344.663 1.711.997v.001c.391.357.584.887.584 1.44 0 .67-.287 1.299-.805 1.702-.518.404-1.195.577-1.965.577-1.462 0-2.77-.745-3.863-2.038l-1.293.973c.523.77 1.15 1.417 1.955 1.888.945.555 2 .833 3.201.833 1.47 0 2.609-.385 3.509-1.14.895-.75 1.313-1.665 1.313-2.912 0-.915-.254-1.615-.769-2.202-.524-.598-1.42-1.21-2.695-1.78l-1.756-.773-.004-.002c-.711-.323-1.215-.6-1.568-.932a1.87 1.87 0 0 1-.567-1.365c0-.613.282-1.198.77-1.559.474-.35 1.07-.51 1.72-.51.23 0 .448.048.669.088l1.68-1.205a5.283 5.283 0 0 0-2.348-.538zm7.512 0-2.518 1.806h3.895v13.024h2.12V56.297h5.133v-1.805zm11.661 0v14.83h2.12v-5.64h3.262l4.14 5.64h2.265l-4.268-5.911.61-.3c.801-.393 1.399-.93 1.835-1.638.436-.708.653-1.492.653-2.398 0-1.398-.46-2.445-1.428-3.297-.97-.855-2.19-1.285-3.76-1.285zm2.12 1.733h3.31c.837 0 1.592.26 2.15.786.554.527.844 1.26.844 2.064 0 .812-.274 1.55-.813 2.08-.55.54-1.318.793-2.181.793h-3.31v-5.149zm21.78-1.732v8.867c0 1.232-.36 2.286-1.107 3.033-.74.74-1.755 1.108-2.916 1.108-1.147 0-2.155-.369-2.9-1.105-.756-.747-1.122-1.802-1.122-3.036v-6.075l-2.062-1.557v7.394c0 1.928.565 3.39 1.697 4.515 1.138 1.131 2.558 1.689 4.387 1.689 1.812 0 3.23-.557 4.377-1.69 1.14-1.125 1.709-2.587 1.709-4.514v-8.63zm5.256 0v14.83h2.417v-8.59l5.237 6.561h.61l5.236-6.56v7.872l2.418-2.18V54.493h-.308l-7.651 9.79-7.65-9.79z" fill="#fff"/></svg>