<?xml version="1.0" encoding="UTF-8" standalone="no"?>
<svg
   height="247.65283"
   viewBox="0 0 1280 247.65283"
   width="1280"
   version="1.1"
   id="svg2"
   sodipodi:docname="ui astrum.svg"
   inkscape:version="1.3 (0e150ed, 2023-07-21)"
   xml:space="preserve"
   xmlns:inkscape="http://www.inkscape.org/namespaces/inkscape"
   xmlns:sodipodi="http://sodipodi.sourceforge.net/DTD/sodipodi-0.dtd"
   xmlns="http://www.w3.org/2000/svg"
   xmlns:svg="http://www.w3.org/2000/svg"><defs
     id="defs2" /><sodipodi:namedview
     id="namedview2"
     pagecolor="#ffffff"
     bordercolor="#000000"
     borderopacity="0.25"
     inkscape:showpageshadow="2"
     inkscape:pageopacity="0.0"
     inkscape:pagecheckerboard="0"
     inkscape:deskcolor="#d1d1d1"
     inkscape:zoom="0.46074352"
     inkscape:cx="204.01806"
     inkscape:cy="1307.669"
     inkscape:current-layer="g1"
     inkscape:window-width="2512"
     inkscape:window-height="1395"
     inkscape:window-x="0"
     inkscape:window-y="23"
     inkscape:window-maximized="0" /><g
     id="g3"
     transform="translate(0,-2367.6851)"><path
       d="M 1280,2615.3379 H 0 V 2367.685 h 1280 z"
       fill="#003e78"
       id="path5"
       style="fill:#00203f;fill-opacity:1;stroke-width:1" /><path
       id="path106-3"
       clip-path="none"
       style="fill:#ffffff;fill-opacity:1;fill-rule:nonzero;stroke:none;stroke-width:0.712543"
       d="m 1092.9529,2527.1427 v -10.6297 h 3.5677 l 0.5344,-4.1413 h -4.1021 v -2.645 c 0,-1.1992 0.3328,-2.0165 2.0528,-2.0165 l 2.194,-7e-4 v -3.706 c -0.3798,-0.051 -1.6816,-0.1617 -3.1965,-0.1617 -3.163,0 -5.3277,1.9303 -5.3277,5.4738 v 3.0561 h -3.577 v 4.1413 h 3.577 v 10.6297 z m -1.8045,-29.4498 c -8.3659,0 -15.1484,6.7825 -15.1484,15.1485 0,8.3666 6.7825,15.1484 15.1484,15.1484 8.366,0 15.1504,-6.7818 15.1504,-15.1484 0,-8.366 -6.7844,-15.1485 -15.1504,-15.1485 z m 0,1.0098 c 7.8088,0 14.1387,6.3306 14.1387,14.1387 0,7.8087 -6.3299,14.1386 -14.1387,14.1386 -7.808,0 -14.1386,-6.3299 -14.1386,-14.1386 0,-7.8081 6.3306,-14.1387 14.1386,-14.1387 z" /><path
       id="path112-2"
       clip-path="none"
       style="fill:#ffffff;fill-opacity:1;fill-rule:nonzero;stroke:none;stroke-width:0.712543"
       d="m 1145.4719,2506.2208 c -0.6705,0 -1.2149,0.5443 -1.2149,1.2149 0,0.6712 0.5444,1.2156 1.2149,1.2156 0.6712,0 1.2156,-0.5444 1.2156,-1.2156 0,-0.6706 -0.5444,-1.2149 -1.2156,-1.2149 m -5.4054,9.9962 c -1.8647,0 -3.3753,-1.5113 -3.3753,-3.3753 0,-1.864 1.5106,-3.3753 3.3753,-3.3753 1.8641,0 3.3754,1.5113 3.3754,3.3753 0,1.864 -1.5113,3.3753 -3.3754,3.3753 m 0,-8.5754 c -2.8722,0 -5.2008,2.3279 -5.2008,5.2001 0,2.8716 2.3286,5.2002 5.2008,5.2002 2.8716,0 5.2002,-2.3286 5.2002,-5.2002 0,-2.8722 -2.3286,-5.2001 -5.2002,-5.2001 m 0,-4.9273 c -2.7504,0 -3.0952,0.012 -4.1755,0.061 -1.078,0.049 -1.8141,0.2209 -2.4582,0.4703 -0.6655,0.2586 -1.2306,0.6057 -1.7935,1.1686 -0.5629,0.5629 -0.9092,1.1279 -1.1679,1.7934 -0.2508,0.6449 -0.4218,1.3802 -0.471,2.459 -0.049,1.0795 -0.061,1.4244 -0.061,4.1748 0,2.7497 0.012,3.0953 0.061,4.1748 0.049,1.0781 0.2202,1.8141 0.471,2.459 0.2587,0.6655 0.605,1.2306 1.1679,1.7935 0.5629,0.5629 1.128,0.9092 1.7935,1.1678 0.6441,0.2501 1.3802,0.4219 2.4582,0.471 1.0803,0.049 1.4251,0.061 4.1755,0.061 2.7498,0 3.0953,-0.011 4.1748,-0.061 1.0781,-0.049 1.8142,-0.2209 2.459,-0.471 0.6655,-0.2586 1.2299,-0.6049 1.7928,-1.1678 0.5636,-0.5629 0.9099,-1.128 1.1686,-1.7935 0.2501,-0.6449 0.4218,-1.3809 0.4709,-2.459 0.048,-1.0795 0.061,-1.4251 0.061,-4.1748 0,-2.7504 -0.012,-3.0953 -0.061,-4.1748 -0.049,-1.0788 -0.2208,-1.8141 -0.4709,-2.459 -0.2587,-0.6655 -0.605,-1.2305 -1.1686,-1.7934 -0.5629,-0.5629 -1.1273,-0.91 -1.7928,-1.1686 -0.6448,-0.2494 -1.3809,-0.4211 -2.459,-0.4703 -1.0795,-0.049 -1.425,-0.061 -4.1748,-0.061 m 0,1.8256 c 2.7041,0 3.0241,0.01 4.0922,0.059 0.9869,0.044 1.5234,0.2095 1.8804,0.3484 0.4724,0.1839 0.8101,0.4026 1.1643,0.7568 0.3548,0.3548 0.5736,0.6918 0.7574,1.165 0.139,0.357 0.3036,0.8928 0.3484,1.8804 0.049,1.0681 0.059,1.388 0.059,4.0921 0,2.7041 -0.01,3.0241 -0.059,4.0922 -0.045,0.9875 -0.2094,1.5234 -0.3484,1.8804 -0.1838,0.4724 -0.4026,0.8101 -0.7574,1.1643 -0.3542,0.3548 -0.6919,0.5735 -1.1643,0.7574 -0.357,0.1382 -0.8935,0.3042 -1.8804,0.3484 -1.0681,0.049 -1.3881,0.059 -4.0922,0.059 -2.7048,0 -3.0247,-0.01 -4.0921,-0.059 -0.9876,-0.044 -1.5241,-0.2102 -1.8811,-0.3484 -0.4724,-0.1839 -0.8095,-0.4026 -1.1643,-0.7574 -0.3541,-0.3542 -0.5736,-0.6919 -0.7574,-1.1643 -0.1383,-0.357 -0.3036,-0.8929 -0.3485,-1.8804 -0.049,-1.0681 -0.059,-1.3881 -0.059,-4.0922 0,-2.7041 0.01,-3.024 0.059,-4.0921 0.045,-0.9876 0.2102,-1.5234 0.3485,-1.8804 0.1838,-0.4732 0.4033,-0.8102 0.7574,-1.165 0.3548,-0.3542 0.6919,-0.5729 1.1643,-0.7568 0.357,-0.1389 0.8935,-0.3042 1.8811,-0.3484 1.0674,-0.049 1.388,-0.059 4.0921,-0.059 m -10e-5,-6.847 c -8.366,0 -15.1484,6.7825 -15.1484,15.1485 0,8.3666 6.7824,15.1484 15.1484,15.1484 8.366,0 15.1484,-6.7818 15.1484,-15.1484 0,-8.366 -6.7824,-15.1485 -15.1484,-15.1485 z m 0,1.0098 c 7.808,0 14.1386,6.3287 14.1386,14.1367 0,7.8088 -6.3306,14.1406 -14.1386,14.1406 -7.8088,0 -14.1387,-6.3318 -14.1387,-14.1406 0,-7.808 6.3299,-14.1367 14.1387,-14.1367 z" /><path
       d="m 151.52009,2424.043 c 0,0 -0.9131,13.7917 -5.40828,18.2859 -4.49429,4.4952 -18.28686,5.4074 -18.28686,5.4074 0,0 13.79257,0.9131 18.28686,5.4083 4.49518,4.4943 5.40738,18.286 5.40738,18.286 0,0 0.9131,-13.7917 5.40739,-18.286 4.49518,-4.4952 18.28685,-5.4083 18.28685,-5.4083 0,0 -13.79167,-0.9122 -18.28685,-5.4074 -4.49429,-4.4942 -5.40739,-18.2859 -5.40739,-18.2859 z m -74.618527,58.2237 -13.619023,31.0426 h 5.224942 l 8.826601,-21.472 7.31546,17.865 h -6.66312 l -1.15783,3.607 h 14.56861 l -13.58076,-31.0426 z m 28.704697,0 c -2.87812,9e-4 -5.11548,0.7565 -6.902507,2.2427 -1.77547,1.4738 -2.60045,3.2564 -2.60045,5.6993 0,1.6704 0.52952,3.0979 1.67311,4.4569 1.14538,1.359 2.940417,2.6272 5.434087,3.7334 v 0 l 3.47973,1.5681 h 0.009 c 1.6749,0.7707 2.81405,1.3865 3.58208,2.0843 v 0 c 0.81876,0.7475 1.22191,1.8573 1.22191,3.0125 0,1.4034 -0.60161,2.7197 -1.68468,3.5642 -1.08398,0.8455 -2.50078,1.2068 -4.1125,1.2068 -3.06146,0 -5.798957,-1.5592 -8.087937,-4.2655 l -2.70458,2.038 c 1.09376,1.609 2.40466,2.9635 4.09024,3.9514 1.978377,1.1605 4.185477,1.7416 6.702277,1.7416 3.07569,0 5.45989,-0.8054 7.34393,-2.3851 1.87247,-1.5707 2.74819,-3.485 2.74819,-6.0953 0,-1.9134 -0.53219,-3.3809 -1.60904,-4.61 -1.09643,-1.2512 -2.97246,-2.5319 -5.64056,-3.7262 l -3.67552,-1.6171 h -0.009 c -1.48962,-0.6763 -2.54421,-1.2575 -3.28288,-1.9508 -0.77426,-0.7271 -1.18542,-1.7799 -1.18542,-2.8585 0,-1.2833 0.58826,-2.507 1.61172,-3.2617 0.99141,-0.7333 2.23735,-1.0679 3.59809,-1.0679 0.48058,0 0.9398,0.1005 1.4008,0.1842 l 3.518,-2.5222 a 11.059507,11.059507 0 0 0 -4.91524,-1.1266 z m 15.72378,0 -5.27211,3.7788 h 8.1538 v 27.262 h 4.4391 v -27.2623 h 10.7418 v -3.7787 z m 24.40799,0 v 31.0408 h 4.43733 v -11.8079 h 6.82776 l 8.66463,11.8079 h 4.74347 l -8.93518,-12.3739 1.27887,-0.6275 c 1.6758,-0.8232 2.92619,-1.9472 3.83928,-3.4281 0.91221,-1.4817 1.36787,-3.1228 1.36787,-5.0193 0,-2.928 -0.96472,-5.1191 -2.99026,-6.9025 -2.03089,-1.7889 -4.58329,-2.6895 -7.86812,-2.6895 z m 4.43733,3.6257 h 6.9301 c 1.75055,0 3.33023,0.5438 4.49696,1.6446 v 0 c 1.16139,1.1009 1.76923,2.6379 1.76923,4.319 0,1.6998 -0.57313,3.2448 -1.70337,4.3546 -1.14983,1.1284 -2.75709,1.6597 -4.5646,1.6597 h -6.92743 v -10.7782 z m 45.58899,-3.6257 v 18.561 c 0,2.5791 -0.75291,4.7844 -2.31657,6.3489 -1.54852,1.5486 -3.67285,2.3193 -6.10333,2.3193 -2.40022,0 -4.51119,-0.7734 -6.06951,-2.3139 -1.58324,-1.5637 -2.3486,-3.7726 -2.3486,-6.3543 v -12.7158 l -4.31629,-3.2608 v 15.4764 c 0,4.0369 1.18186,7.0974 3.55182,9.4531 2.38241,2.3673 5.35487,3.5341 9.18258,3.5341 3.79122,0 6.76191,-1.1659 9.16212,-3.5358 2.38508,-2.3566 3.57585,-5.4154 3.57585,-9.4514 v -18.0599 z m 11.00166,0 v 31.0408 h 5.06119 v -17.9773 l 10.96161,13.732 h 1.2753 l 10.95984,-13.732 v 16.4784 l 5.06297,-4.5628 v -24.9793 h -0.64611 l -16.01479,20.4922 -16.01391,-20.4922 z"
       fill="#ffffff"
       id="path9"
       style="stroke-width:1" /><text
       xml:space="preserve"
       style="font-size:21.1975px;font-family:Miriam;-inkscape-font-specification:'Miriam, Normal';text-align:center;text-anchor:middle;fill:#ffffff;fill-opacity:1;stroke-width:3;stroke-linejoin:round;paint-order:markers stroke fill"
       x="494.32419"
       y="2468.2307"
       id="text4-0"><tspan
         sodipodi:role="line"
         id="tspan4-3"
         style="fill:#ffffff;fill-opacity:1;stroke-width:3"
         x="494.32419"
         y="2468.2307">telefono</tspan></text><path
       id="path6-6"
       d="m 438.33035,2507.3897 7.22414,7.2188 v -14.4409 z m 6.41138,8.0322 -7.22143,-7.2214 c -1.42385,1.4198 -2.35165,2.3949 -3.32818,2.3949 -0.97314,0 -1.90772,-0.9751 -3.3275,-2.3949 l -7.22211,7.2214 z m -21.09922,-16.0684 9.1711,9.1718 c 1.01375,1.0151 1.74395,1.0151 2.75702,0 l 9.1711,-9.1718 z m -0.81073,15.255 7.22279,-7.2188 -7.22279,-7.2221 z"
       style="fill:#ffffff;fill-opacity:1;fill-rule:evenodd;stroke:none;stroke-width:0.676734"
       clip-path="none" /><text
       xml:space="preserve"
       style="font-size:21.1975px;font-family:Miriam;-inkscape-font-specification:'Miriam, Normal';text-align:center;text-anchor:middle;fill:#ffffff;fill-opacity:1;stroke-width:3;stroke-linejoin:round;paint-order:markers stroke fill"
       x="548.25775"
       y="2513.094"
       id="text9-1"><tspan
         sodipodi:role="line"
         id="tspan9-0"
         style="fill:#ffffff;fill-opacity:1;stroke-width:3"
         x="548.25775"
         y="2513.094">info@astrum-aps.com</tspan></text><path
       id="path10-5-6"
       d="m 427.66904,2447.5978 c -0.0403,0.01 -0.0814,0.018 -0.12658,0.03 v 0.085 c 0.0105,0.8474 0.0218,1.6955 0.0363,2.5469 0.0185,0.9804 0.0403,1.9616 0.0629,2.942 0.0145,0.6789 0.0411,1.3529 0.0822,2.0278 0.01,0.1402 0.0282,0.2765 0.0427,0.416 0.0129,0.1104 0.0798,0.1669 0.1935,0.1733 0.0645,0.01 0.13222,0 0.19672,-0.01 0.26123,-0.044 0.49665,-0.1516 0.72724,-0.2733 0.2322,-0.1258 0.43537,-0.2766 0.60469,-0.479 0.12335,-0.1443 0.2451,-0.2886 0.37007,-0.4353 0.0395,-0.044 0.0516,-0.089 0.0492,-0.1476 -0.0161,-1.0062 -0.0306,-2.0164 -0.0452,-3.0226 -0.0129,-0.8409 -0.0266,-1.681 -0.0355,-2.522 -0.002,-0.1104 -0.0331,-0.2064 -0.0887,-0.2942 -0.0822,-0.1363 -0.19109,-0.2476 -0.31283,-0.3467 -0.21446,-0.1774 -0.45392,-0.3177 -0.70386,-0.4394 -0.21204,-0.099 -0.43134,-0.1806 -0.66435,-0.2242 -0.0605,-0.011 -0.12174,-0.023 -0.18382,-0.03 z m 14.26983,24.3343 c -0.009,-0.048 -0.0161,-0.099 -0.0306,-0.1476 -0.0782,-0.2693 -0.22897,-0.4902 -0.44263,-0.6595 -0.73208,-0.5789 -1.46335,-1.1578 -2.20268,-1.7254 -0.54744,-0.4241 -1.10053,-0.8409 -1.65362,-1.2537 -0.15963,-0.1217 -0.32814,-0.2209 -0.51277,-0.3023 -0.21285,-0.099 -0.43618,-0.1694 -0.67725,-0.1581 -0.0331,0 -0.0661,0.01 -0.0968,0.022 -0.57808,0.3023 -1.15455,0.6079 -1.73264,0.9143 -0.0145,0 -0.025,0.014 -0.0443,0.029 2.26637,1.7996 4.5279,3.5911 6.79427,5.3906 0.008,-0.023 0.0153,-0.037 0.0186,-0.056 0.16286,-0.5023 0.3233,-1.007 0.48133,-1.5085 0.0387,-0.125 0.0661,-0.254 0.0992,-0.3749 z m -21.35113,-18.8784 c 0.003,-0.023 0.0105,-0.048 0.0121,-0.069 0.0169,-0.1774 0.0306,-0.3548 0.0484,-0.5281 0.0331,-0.2943 0.0919,-0.5862 0.17576,-0.87 0.27897,-0.9804 0.81754,-1.7947 1.61009,-2.4405 0.51761,-0.4201 1.0973,-0.7337 1.72053,-0.9731 0.52649,-0.1992 1.0707,-0.3427 1.62863,-0.4386 0.32169,-0.052 0.645,-0.092 0.97153,-0.1065 h 0.0444 c 0.004,0.025 0.007,0.052 0.01,0.073 0.004,0.1588 0.009,0.3169 0.0121,0.4757 0.0153,0.5192 0.029,1.0352 0.0452,1.5552 0.0234,0.7821 0.0476,1.5674 0.0718,2.3487 0.007,0.3321 0.0177,0.6635 0.0274,0.9989 0.0202,0.6821 0.0403,1.3601 0.0605,2.039 0.007,0.2685 0.0137,0.5378 0.0242,0.803 0.002,0.041 -0.0242,0.052 -0.0532,0.067 -0.23865,0.1105 -0.46037,0.2508 -0.66355,0.4201 -0.43537,0.3685 -0.69579,0.8329 -0.78932,1.3932 -0.0701,0.4241 -0.0411,0.8369 0.0589,1.2537 0.05,0.2169 0.12174,0.4273 0.22575,0.6297 0.93203,1.8471 1.87534,3.687 2.85251,5.5115 0.44264,0.8192 0.88849,1.6367 1.35854,2.4373 0.23381,0.4024 0.47327,0.7998 0.74658,1.1796 0.19915,0.2765 0.4386,0.5047 0.74095,0.6635 0.19753,0.1032 0.40554,0.1693 0.62323,0.2032 0.40877,0.055 0.80544,0 1.19245,-0.133 0.21768,-0.074 0.4257,-0.1629 0.62484,-0.2766 0.007,0 0.0145,-0.01 0.0258,-0.011 2.20026,1.7294 4.40213,3.458 6.60964,5.1947 -0.0218,0.018 -0.0403,0.03 -0.0605,0.04 -0.54422,0.3475 -1.11907,0.6378 -1.71247,0.8925 -0.93606,0.3983 -1.89872,0.716 -2.88799,0.9546 -0.0137,0 -0.025,0.01 -0.0355,0.011 h -1.66652 c -0.0105,0 -0.0218,-0.011 -0.0355,-0.011 -0.37652,-0.055 -0.74337,-0.1427 -1.10779,-0.2612 -0.66677,-0.2169 -1.29484,-0.5232 -1.89388,-0.8877 -0.70064,-0.4249 -1.34967,-0.9223 -1.96564,-1.4641 -0.6966,-0.612 -1.3416,-1.2755 -1.95355,-1.9721 -0.69902,-0.7926 -1.34885,-1.623 -1.97047,-2.4736 -0.5547,-0.7635 -1.08602,-1.548 -1.60847,-2.3373 -0.33218,-0.4942 -0.61598,-1.0183 -0.86672,-1.5561 -0.25075,-0.5418 -0.47005,-1.0949 -0.66274,-1.6584 -0.37652,-1.0917 -0.66113,-2.2051 -0.88123,-3.3371 -0.0798,-0.4015 -0.14835,-0.803 -0.21608,-1.2086 -0.05,-0.2991 -0.0903,-0.5934 -0.13142,-0.8917 -0.0387,-0.3023 -0.0734,-0.6014 -0.10642,-0.9038 -0.0315,-0.2798 -0.0597,-0.5603 -0.0847,-0.8401 -0.0258,-0.3096 -0.05,-0.616 -0.0685,-0.9256 -0.0234,-0.4096 -0.0427,-0.8183 -0.0629,-1.2271 -0.0105,-0.2403 -0.0169,-0.4797 -0.0274,-0.7192 0,-0.023 -0.006,-0.048 -0.009,-0.074 z"
       style="fill:#ffffff;fill-opacity:1;fill-rule:evenodd;stroke:none;stroke-width:0.806251"
       clip-path="none" /><path
       id="path1-7"
       clip-path="none"
       style="fill:#ffffff;fill-opacity:1;fill-rule:nonzero;stroke:none;stroke-width:0.261528"
       d="m 1190.8912,2501.3196 c 0,0 -9.9336,-7e-4 -12.4112,0.6632 -1.367,0.3654 -2.4443,1.4426 -2.8097,2.8096 -0.6637,2.4778 -0.6632,7.6469 -0.6632,7.6469 0,0 -5e-4,5.1694 0.6632,7.6468 0.3654,1.367 1.4427,2.4442 2.8097,2.8096 2.4776,0.6641 12.4112,0.6632 12.4112,0.6632 0,0 9.9364,9e-4 12.414,-0.6632 1.367,-0.3654 2.4443,-1.4426 2.8097,-2.8096 0.664,-2.4774 0.6632,-7.6468 0.6632,-7.6468 0,0 8e-4,-5.1691 -0.6632,-7.6469 -0.3654,-1.367 -1.4427,-2.4442 -2.8097,-2.8096 -2.4776,-0.6639 -12.414,-0.6632 -12.414,-0.6632 z m -3.1763,6.3552 8.2536,4.7645 -8.2536,4.7671 z" /></g></svg>
