<?xml version="1.0" encoding="UTF-8" standalone="no"?>
<svg
   height="600"
   viewBox="0 0 158.74983 158.74958"
   width="600"
   version="1.1"
   id="svg2"
   sodipodi:docname="logo.svg"
   inkscape:version="1.3 (0e150ed6c4, 2023-07-21)"
   xmlns:inkscape="http://www.inkscape.org/namespaces/inkscape"
   xmlns:sodipodi="http://sodipodi.sourceforge.net/DTD/sodipodi-0.dtd"
   xmlns="http://www.w3.org/2000/svg"
   xmlns:svg="http://www.w3.org/2000/svg">
  <defs
     id="defs2">
    <clipPath
       clipPathUnits="userSpaceOnUse"
       id="clipPath3">
      <g
         id="g4">
        <g
           inkscape:label="Clip"
           id="use3"
           clip-path="url(#clipPath3)">
          <circle
             style="vector-effect:non-scaling-stroke;fill:#003e78;fill-opacity:1;stroke:none;stroke-width:0.265784;stroke-linecap:round;stroke-linejoin:round;stroke-dasharray:none;-inkscape-stroke:hairline"
             id="circle4"
             cx="79.374916"
             cy="79.374786"
             r="79.374916" />
          <circle
             style="vector-effect:non-scaling-stroke;fill:#003e78;fill-opacity:1;stroke:none;stroke-width:0.265784;stroke-linecap:round;stroke-linejoin:round;stroke-dasharray:none;-inkscape-stroke:hairline"
             id="circle5"
             cx="79.374916"
             cy="79.374786"
             r="79.374916" />
          <path
             d="m 79.682064,34.716803 c 0,0 -0.70148,10.595401 -4.15488,14.048119 -3.45272,3.453402 -14.048804,4.154202 -14.048804,4.154202 0,0 10.596084,0.701483 14.048804,4.154885 3.4534,3.452718 4.1542,14.048119 4.1542,14.048119 0,0 0.70148,-10.595401 4.1542,-14.048119 3.4534,-3.453402 14.0488,-4.154885 14.0488,-4.154885 0,0 -10.5954,-0.7008 -14.0488,-4.154202 -3.45272,-3.452718 -4.1542,-14.048119 -4.1542,-14.048119 z M 22.35669,79.446939 11.893928,103.29529 h 4.014042 l 6.781001,-16.49577 5.620068,13.72472 h -5.118911 l -0.889502,2.77105 H 33.492903 L 23.059541,79.446939 Z m 22.052272,0.0014 c -2.211108,6.84e-4 -3.929946,0.581151 -5.302829,1.722941 -1.363994,1.132218 -1.99779,2.501683 -1.99779,4.378457 0,1.283317 0.406805,2.379982 1.285368,3.424002 0.87993,1.04402 2.258967,2.018303 4.174713,2.868149 v 0.0014 l 2.673292,1.204691 0.0075,0.0014 c 1.286736,0.59209 2.16188,1.065214 2.751919,1.601244 v 0.0024 c 0.62901,0.574307 0.938729,1.42689 0.938729,2.314347 0,1.078198 -0.462185,2.089408 -1.294257,2.738241 -0.832754,0.649519 -1.921215,0.927099 -3.159408,0.927099 -2.35195,0 -4.455032,-1.197845 -6.213525,-3.276995 l -2.077784,1.565686 c 0.840275,1.236139 1.847375,2.276739 3.142315,3.035649 1.51988,0.89155 3.215472,1.33801 5.148994,1.33801 2.36289,0 4.19454,-0.61875 5.641947,-1.83233 1.438518,-1.20674 2.111286,-2.67739 2.111286,-4.682698 0,-1.469969 -0.408857,-2.597401 -1.236142,-3.5416 -0.842326,-0.961292 -2.283579,-1.945146 -4.333332,-2.86268 l -2.823708,-1.242295 -0.0068,-0.0027 C 42.694925,88.611141 41.884733,88.16468 41.317256,87.632072 40.722432,87.073484 40.40656,86.264659 40.40656,85.436007 c 0,-0.985905 0.45193,-1.926002 1.238192,-2.505785 0.761649,-0.563374 1.718838,-0.820447 2.764226,-0.820447 0.369201,0 0.721994,0.07726 1.076154,0.141526 l 2.702692,-1.937624 a 8.4964213,8.4964213 0 0 0 -3.776071,-0.865251 z m 12.079728,0 -4.050278,2.903019 h 6.26412 V 103.29532 H 62.11286 V 82.351325 h 8.252334 v -2.903019 z m 18.751334,0 v 23.846981 h 3.40896 v -9.071399 h 5.24539 l 6.65657,9.071399 h 3.64416 l -6.86442,-9.506235 0.98249,-0.482013 c 1.28742,-0.632428 2.24803,-1.49595 2.94952,-2.633638 0.70079,-1.138371 1.05085,-2.399127 1.05085,-3.856105 0,-2.249395 -0.74114,-3.932681 -2.29725,-5.302828 -1.56023,-1.37425 -3.52109,-2.066162 -6.04465,-2.066162 z m 3.40896,2.785421 h 5.32402 c 1.34485,0 2.55843,0.417745 3.45478,1.26349 v 0.0014 c 0.89223,0.845745 1.3592,2.026506 1.3592,3.318028 0,1.305879 -0.44031,2.492794 -1.30861,3.345376 -0.88336,0.86694 -2.11813,1.275113 -3.50673,1.275113 h -5.32198 v -8.280436 z m 35.023566,-2.785454 v 14.259385 c 0,1.98138 -0.57842,3.675605 -1.7797,4.877563 -1.18965,1.18965 -2.82165,1.781726 -4.68886,1.781726 -1.84395,0 -3.4657,-0.594127 -4.66287,-1.777623 -1.21632,-1.201275 -1.8043,-2.898235 -1.8043,-4.881666 v -9.7688 L 97.420834,81.43379 v 11.889658 c 0,3.101291 0.90796,5.452563 2.728686,7.262312 1.83027,1.81867 4.11385,2.715 7.05447,2.715 2.9126,0 5.19481,-0.89565 7.03876,-2.71636 1.83234,-1.81044 2.74714,-4.160345 2.74714,-7.260952 V 79.44899 Z m 8.45198,0 v 23.846984 h 3.88823 V 89.484435 l 8.42122,10.549585 h 0.97975 l 8.41984,-10.549585 v 12.659505 l 3.88961,-3.505357 V 79.448306 h -0.49637 l -12.3033,15.743028 -12.30262,-15.743028 z"
             fill="#ffffff"
             id="path5"
             style="stroke-width:0.683707" />
        </g>
      </g>
    </clipPath>
  </defs>
  <sodipodi:namedview
     id="namedview2"
     pagecolor="#ffffff"
     bordercolor="#000000"
     borderopacity="0.25"
     inkscape:showpageshadow="2"
     inkscape:pageopacity="0.0"
     inkscape:pagecheckerboard="0"
     inkscape:deskcolor="#d1d1d1"
     showguides="true"
     inkscape:zoom="1.1061791"
     inkscape:cx="300.13223"
     inkscape:cy="299.68022"
     inkscape:window-width="1680"
     inkscape:window-height="932"
     inkscape:window-x="0"
     inkscape:window-y="33"
     inkscape:window-maximized="1"
     inkscape:current-layer="svg2" />
  <rect
     style="vector-effect:non-scaling-stroke;fill:#003e78;stroke-width:0.481511;stroke-linecap:round;stroke-linejoin:round;-inkscape-stroke:hairline"
     id="rect1"
     width="158.74983"
     height="158.74983"
     x="-1.0766602e-06"
     y="-0.00012607666" />
  <circle
     style="vector-effect:non-scaling-stroke;fill:#003e78;fill-opacity:1;stroke:none;stroke-width:0.265784;stroke-linecap:round;stroke-linejoin:round;stroke-dasharray:none;-inkscape-stroke:hairline"
     id="path3"
     cx="79.374916"
     cy="79.374786"
     r="79.374916"
     clip-path="none" />
  <path
     d="m 79.682064,34.716803 c 0,0 -0.70148,10.595401 -4.15488,14.048119 -3.45272,3.453402 -14.048804,4.154202 -14.048804,4.154202 0,0 10.596084,0.701483 14.048804,4.154885 3.4534,3.452718 4.1542,14.048119 4.1542,14.048119 0,0 0.70148,-10.595401 4.1542,-14.048119 3.4534,-3.453402 14.0488,-4.154885 14.0488,-4.154885 0,0 -10.5954,-0.7008 -14.0488,-4.154202 -3.45272,-3.452718 -4.1542,-14.048119 -4.1542,-14.048119 z M 22.35669,79.446939 11.893928,103.29529 h 4.014042 l 6.781001,-16.49577 5.620068,13.72472 h -5.118911 l -0.889502,2.77105 H 33.492903 L 23.059541,79.446939 Z m 22.052272,0.0014 c -2.211108,6.84e-4 -3.929946,0.581151 -5.302829,1.722941 -1.363994,1.132218 -1.99779,2.501683 -1.99779,4.378457 0,1.283317 0.406805,2.379982 1.285368,3.424002 0.87993,1.04402 2.258967,2.018303 4.174713,2.868149 v 0.0014 l 2.673292,1.204691 0.0075,0.0014 c 1.286736,0.59209 2.16188,1.065214 2.751919,1.601244 v 0.0024 c 0.62901,0.574307 0.938729,1.42689 0.938729,2.314347 0,1.078198 -0.462185,2.089408 -1.294257,2.738241 -0.832754,0.649519 -1.921215,0.927099 -3.159408,0.927099 -2.35195,0 -4.455032,-1.197845 -6.213525,-3.276995 l -2.077784,1.565686 c 0.840275,1.236139 1.847375,2.276739 3.142315,3.035649 1.51988,0.89155 3.215472,1.33801 5.148994,1.33801 2.36289,0 4.19454,-0.61875 5.641947,-1.83233 1.438518,-1.20674 2.111286,-2.67739 2.111286,-4.682698 0,-1.469969 -0.408857,-2.597401 -1.236142,-3.5416 -0.842326,-0.961292 -2.283579,-1.945146 -4.333332,-2.86268 l -2.823708,-1.242295 -0.0068,-0.0027 C 42.694925,88.611141 41.884733,88.16468 41.317256,87.632072 40.722432,87.073484 40.40656,86.264659 40.40656,85.436007 c 0,-0.985905 0.45193,-1.926002 1.238192,-2.505785 0.761649,-0.563374 1.718838,-0.820447 2.764226,-0.820447 0.369201,0 0.721994,0.07726 1.076154,0.141526 l 2.702692,-1.937624 a 8.4964213,8.4964213 0 0 0 -3.776071,-0.865251 z m 12.079728,0 -4.050278,2.903019 h 6.26412 V 103.29532 H 62.11286 V 82.351325 h 8.252334 v -2.903019 z m 18.751334,0 v 23.846981 h 3.40896 v -9.071399 h 5.24539 l 6.65657,9.071399 h 3.64416 l -6.86442,-9.506235 0.98249,-0.482013 c 1.28742,-0.632428 2.24803,-1.49595 2.94952,-2.633638 0.70079,-1.138371 1.05085,-2.399127 1.05085,-3.856105 0,-2.249395 -0.74114,-3.932681 -2.29725,-5.302828 -1.56023,-1.37425 -3.52109,-2.066162 -6.04465,-2.066162 z m 3.40896,2.785421 h 5.32402 c 1.34485,0 2.55843,0.417745 3.45478,1.26349 v 0.0014 c 0.89223,0.845745 1.3592,2.026506 1.3592,3.318028 0,1.305879 -0.44031,2.492794 -1.30861,3.345376 -0.88336,0.86694 -2.11813,1.275113 -3.50673,1.275113 h -5.32198 v -8.280436 z m 35.023566,-2.785454 v 14.259385 c 0,1.98138 -0.57842,3.675605 -1.7797,4.877563 -1.18965,1.18965 -2.82165,1.781726 -4.68886,1.781726 -1.84395,0 -3.4657,-0.594127 -4.66287,-1.777623 -1.21632,-1.201275 -1.8043,-2.898235 -1.8043,-4.881666 v -9.7688 L 97.420834,81.43379 v 11.889658 c 0,3.101291 0.90796,5.452563 2.728686,7.262312 1.83027,1.81867 4.11385,2.715 7.05447,2.715 2.9126,0 5.19481,-0.89565 7.03876,-2.71636 1.83234,-1.81044 2.74714,-4.160345 2.74714,-7.260952 V 79.44899 Z m 8.45198,0 v 23.846984 h 3.88823 V 89.484435 l 8.42122,10.549585 h 0.97975 l 8.41984,-10.549585 v 12.659505 l 3.88961,-3.505357 V 79.448306 h -0.49637 l -12.3033,15.743028 -12.30262,-15.743028 z"
     fill="#ffffff"
     id="path2"
     style="stroke-width:0.683707" />
</svg>
