<svg height="522.094" viewBox="0 0 225.792 138.137" width="853.388" xmlns="http://www.w3.org/2000/svg"><path d="M112.71 18.913s-1.026 15.497-6.077 20.547c-5.05 5.051-20.548 6.076-20.548 6.076s15.498 1.026 20.548 6.077c5.051 5.05 6.076 20.547 6.076 20.547s1.026-15.497 6.076-20.547c5.051-5.051 20.548-6.077 20.548-6.077s-15.497-1.025-20.548-6.076c-5.05-5.05-6.076-20.547-6.076-20.547zM28.865 84.336l-15.303 34.881h5.871l9.918-24.127 8.22 20.074h-7.487l-1.301 4.053h16.37l-15.26-34.881zm32.254.002c-3.234.001-5.748.85-7.756 2.52-1.995 1.656-2.922 3.659-2.922 6.404 0 1.877.595 3.481 1.88 5.008 1.287 1.527 3.304 2.952 6.106 4.195v.002l3.91 1.762.011.002c1.882.866 3.162 1.558 4.025 2.342v.004c.92.84 1.373 2.087 1.373 3.385 0 1.577-.676 3.056-1.893 4.005-1.218.95-2.81 1.356-4.621 1.356-3.44 0-6.516-1.752-9.088-4.793l-3.039 2.29c1.229 1.808 2.702 3.33 4.596 4.44 2.223 1.304 4.703 1.957 7.531 1.957 3.456 0 6.135-.905 8.252-2.68 2.104-1.765 3.088-3.916 3.088-6.849 0-2.15-.598-3.799-1.808-5.18-1.232-1.406-3.34-2.845-6.338-4.187l-4.13-1.817-.01-.004c-1.674-.76-2.859-1.413-3.689-2.192-.87-.817-1.332-2-1.332-3.212 0-1.442.661-2.817 1.811-3.665 1.114-.824 2.514-1.2 4.043-1.2.54 0 1.056.113 1.574.207l3.953-2.834a12.427 12.427 0 0 0-5.523-1.266zm17.668 0-5.924 4.246h9.162v30.633h4.988V88.584h12.07v-4.246zm27.426 0v34.879h4.986v-13.268h7.672l9.736 13.268h5.33l-10.04-13.904 1.437-.705c1.883-.925 3.288-2.188 4.314-3.852 1.025-1.665 1.537-3.509 1.537-5.64 0-3.29-1.084-5.752-3.36-7.756-2.282-2.01-5.15-3.022-8.841-3.022zm4.986 4.074h7.787c1.967 0 3.742.611 5.053 1.848v.002c1.305 1.237 1.988 2.964 1.988 4.853 0 1.91-.644 3.646-1.914 4.893-1.292 1.268-3.098 1.865-5.129 1.865H111.2V89.762zm51.226-4.074v20.856c0 2.898-.846 5.376-2.603 7.134-1.74 1.74-4.127 2.606-6.858 2.606-2.697 0-5.069-.869-6.82-2.6-1.779-1.757-2.639-4.239-2.639-7.14V90.906l-4.85-3.664v17.39c0 4.536 1.328 7.975 3.991 10.622 2.677 2.66 6.017 3.971 10.318 3.971 4.26 0 7.598-1.31 10.295-3.973 2.68-2.648 4.018-6.085 4.018-10.62V84.339zm12.362 0v34.879h5.687v-20.2l12.317 15.43h1.433l12.315-15.43v18.516l5.689-5.127V84.338h-.726l-17.995 23.026-17.994-23.026z" fill="#fff"/></svg>