<?xml version="1.0" encoding="UTF-8" standalone="no"?>
<svg
   height="3000"
   viewBox="0 0 1280 3000"
   width="1280"
   version="1.1"
   id="svg2"
   sodipodi:docname="ui astrum.svg"
   inkscape:version="1.3 (0e150ed6c4, 2023-07-21)"
   xmlns:inkscape="http://www.inkscape.org/namespaces/inkscape"
   xmlns:sodipodi="http://sodipodi.sourceforge.net/DTD/sodipodi-0.dtd"
   xmlns="http://www.w3.org/2000/svg"
   xmlns:svg="http://www.w3.org/2000/svg">
  <defs
     id="defs2" />
  <sodipodi:namedview
     id="namedview2"
     pagecolor="#ffffff"
     bordercolor="#000000"
     borderopacity="0.25"
     inkscape:showpageshadow="2"
     inkscape:pageopacity="0.0"
     inkscape:pagecheckerboard="0"
     inkscape:deskcolor="#d1d1d1"
     inkscape:zoom="0.90344978"
     inkscape:cx="203.11035"
     inkscape:cy="826.27725"
     inkscape:current-layer="svg2" />
  <path
     d="M 307.28472,1077.1647 H 0 V 477.31564 h 307.28472 z"
     fill="#003e78"
     id="path10"
     style="fill:#d5dce3;fill-opacity:1;stroke-width:0.999997" />
  <path
     d="M 1280,131.84186 H 0 v 345.47381 h 1280 z"
     fill="#003e78"
     id="path6"
     style="fill:#9aaaba;fill-opacity:1;stroke-width:1" />
  <path
     d="M 1279.9999,39.544188 H 0 V -6.30316e-4 h 1279.9999 z"
     fill="#003e78"
     id="path3"
     style="fill:#2f3c49;fill-opacity:1;stroke-width:1" />
  <path
     d="M 1280,131.84186 H 0 V 39.21569 h 1280 z"
     fill="#003e78"
     id="path4"
     style="stroke-width:1" />
  <path
     d="M 293.09252,202.64069 H 67.123988 V 44.215689 H 293.09252 Z"
     fill="#003e78"
     id="path1"
     style="stroke-width:1" />
  <path
     d="m 179.31128,72.29214 c 0,0 -0.9131,13.791678 -5.40828,18.285964 -4.49429,4.495179 -18.28686,5.407388 -18.28686,5.407388 0,0 13.79257,0.913093 18.28686,5.408278 4.49518,4.49428 5.40738,18.28596 5.40738,18.28596 0,0 0.9131,-13.79168 5.40739,-18.28596 4.49518,-4.495185 18.28685,-5.408278 18.28685,-5.408278 0,0 -13.79167,-0.912209 -18.28685,-5.407388 -4.49429,-4.494286 -5.40739,-18.285964 -5.40739,-18.285964 z m -74.61853,58.22372 -13.619023,31.04262 h 5.224942 l 8.826601,-21.47201 7.31546,17.86501 h -6.66312 l -1.15783,3.607 h 14.56861 l -13.58076,-31.04262 z m 28.7047,0.002 c -2.87812,8.9e-4 -5.11548,0.75647 -6.90251,2.24269 -1.77547,1.47377 -2.60045,3.25636 -2.60045,5.69929 0,1.67045 0.52952,3.09795 1.67311,4.45691 1.14538,1.35897 2.94042,2.62716 5.43409,3.73338 v 0.002 l 3.47973,1.5681 0.009,0.002 c 1.6749,0.7707 2.81405,1.38656 3.58208,2.08428 v 0.004 c 0.81876,0.74757 1.22191,1.85734 1.22191,3.01251 0,1.40346 -0.60161,2.71971 -1.68468,3.56428 -1.08398,0.84546 -2.50078,1.20679 -4.1125,1.20679 -3.06146,0 -5.79896,-1.55921 -8.08794,-4.26557 l -2.70458,2.038 c 1.09376,1.60904 2.40466,2.96356 4.09024,3.95141 1.97838,1.16051 4.18548,1.74165 6.70228,1.74165 3.07569,0 5.45989,-0.80541 7.34393,-2.38509 1.87247,-1.57077 2.74819,-3.48507 2.74819,-6.09532 0,-1.91341 -0.53219,-3.38095 -1.60904,-4.60998 -1.09643,-1.25128 -2.97246,-2.53193 -5.64056,-3.72626 l -3.67552,-1.61705 -0.009,-0.004 c -1.48962,-0.67636 -2.54421,-1.25751 -3.28288,-1.95078 -0.77426,-0.7271 -1.18542,-1.77992 -1.18542,-2.85855 0,-1.28332 0.58826,-2.50701 1.61172,-3.2617 0.99141,-0.73332 2.23735,-1.06794 3.59809,-1.06794 0.48058,0 0.9398,0.10053 1.4008,0.18421 l 3.518,-2.52214 a 11.059507,11.059507 0 0 0 -4.91524,-1.12667 z m 15.72378,0 -5.27211,3.77876 h 8.1538 v 27.26208 h 4.4391 v -27.2623 h 10.7418 v -3.77876 z m 24.40799,0 v 31.04084 h 4.43733 v -11.80796 h 6.82776 l 8.66463,11.80796 h 4.74347 l -8.93518,-12.37397 1.27887,-0.62743 c 1.6758,-0.8232 2.92619,-1.94722 3.83928,-3.42811 0.91221,-1.48178 1.36787,-3.12286 1.36787,-5.01937 0,-2.92796 -0.96472,-5.11903 -2.99026,-6.90251 -2.03089,-1.78881 -4.58329,-2.68945 -7.86812,-2.68945 z m 4.43733,3.62569 h 6.9301 c 1.75055,0 3.33023,0.54376 4.49696,1.64464 v 0.002 c 1.16139,1.10088 1.76923,2.63783 1.76923,4.31897 0,1.69981 -0.57313,3.24478 -1.70337,4.35456 -1.14983,1.12847 -2.75709,1.65977 -4.5646,1.65977 h -6.92743 v -10.77828 z m 45.58899,-3.62569 v 18.56096 c 0,2.5791 -0.75291,4.78441 -2.31657,6.34896 -1.54852,1.54853 -3.67285,2.31923 -6.10333,2.31923 -2.40022,0 -4.51119,-0.77337 -6.06951,-2.31389 -1.58324,-1.56365 -2.3486,-3.77253 -2.3486,-6.3543 V 136.3631 l -4.31629,-3.26081 v 15.47637 c 0,4.03685 1.18186,7.09742 3.55182,9.45314 2.38241,2.36729 5.35487,3.53402 9.18258,3.53402 3.79122,0 6.76191,-1.16584 9.16212,-3.5358 2.38508,-2.35661 3.57585,-5.4154 3.57585,-9.45136 v -18.05991 z m 11.00166,0 v 31.04084 h 5.06119 V 143.58133 L 250.58,157.31338 h 1.2753 l 10.95984,-13.73205 v 16.47846 l 5.06297,-4.56281 V 130.51764 H 267.232 l -16.01479,20.49217 -16.01391,-20.49217 z"
     fill="#ffffff"
     id="path2"
     style="stroke-width:1" />
  <text
     xml:space="preserve"
     style="font-size:21.1975px;font-family:Miriam;-inkscape-font-specification:'Miriam, Normal';text-align:center;text-anchor:middle;fill:#ffffff;fill-opacity:1;stroke-width:3;stroke-linejoin:round;paint-order:markers stroke fill"
     x="214.54337"
     y="26.012747"
     id="text4"><tspan
       sodipodi:role="line"
       id="tspan4"
       style="fill:#ffffff;fill-opacity:1;stroke-width:3"
       x="214.54337"
       y="26.012747">telefono   |   mail:info@astrum-aps.com</tspan></text>
  <text
     xml:space="preserve"
     style="font-size:21.1975px;font-family:Miriam;-inkscape-font-specification:'Miriam, Normal';text-align:center;text-anchor:middle;fill:#ffffff;fill-opacity:1;stroke-width:3;stroke-linejoin:round;paint-order:markers stroke fill"
     x="1088.2257"
     y="26.012747"
     id="text5"><tspan
       sodipodi:role="line"
       id="tspan5"
       style="fill:#ffffff;fill-opacity:1;stroke-width:3"
       x="1088.2257"
       y="26.012747">social icon</tspan></text>
  <path
     d="M 1280,1985.6444 H 0 v -247.6529 h 1280 z"
     fill="#003e78"
     id="path5"
     style="stroke-width:1" />
  <g
     id="g10"
     transform="matrix(3.7795317,0,0,3.7795317,0,0.00175197)"
     style="stroke-width:0.264583">
    <ellipse
       style="fill:#ffffff;fill-opacity:1;stroke:#ffffff;stroke-width:0.793748;stroke-linejoin:round;stroke-dasharray:none;stroke-opacity:1;paint-order:markers stroke fill"
       id="path7"
       cx="151.85551"
       cy="117.07652"
       rx="1.5874988"
       ry="1.5874982" />
    <ellipse
       style="fill:none;fill-opacity:1;stroke:#ffffff;stroke-width:0.793748;stroke-linejoin:round;stroke-dasharray:none;stroke-opacity:1;paint-order:markers stroke fill"
       id="circle7"
       cx="160.59433"
       cy="117.07652"
       rx="1.5874988"
       ry="1.5874982" />
    <ellipse
       style="fill:none;fill-opacity:1;stroke:#ffffff;stroke-width:0.793748;stroke-linejoin:round;stroke-dasharray:none;stroke-opacity:1;paint-order:markers stroke fill"
       id="circle8"
       cx="169.33315"
       cy="117.07652"
       rx="1.5874988"
       ry="1.5874982" />
    <ellipse
       style="fill:none;fill-opacity:1;stroke:#ffffff;stroke-width:0.793748;stroke-linejoin:round;stroke-dasharray:none;stroke-opacity:1;paint-order:markers stroke fill"
       id="circle9"
       cx="178.07198"
       cy="117.07652"
       rx="1.5874988"
       ry="1.5874982" />
    <ellipse
       style="fill:none;fill-opacity:1;stroke:#ffffff;stroke-width:0.793748;stroke-linejoin:round;stroke-dasharray:none;stroke-opacity:1;paint-order:markers stroke fill"
       id="circle10"
       cx="186.81079"
       cy="117.07652"
       rx="1.5874988"
       ry="1.5874982" />
  </g>
  <text
     xml:space="preserve"
     style="font-size:44.6902px;font-family:Miriam;-inkscape-font-specification:'Miriam, Normal';text-align:center;text-anchor:middle;fill:none;fill-opacity:1;stroke:#ffffff;stroke-width:3;stroke-linejoin:round;stroke-dasharray:none;stroke-opacity:1;paint-order:markers stroke fill"
     x="627.93335"
     y="291.44455"
     id="text10"
     transform="scale(1.0204221,0.97998661)"><tspan
       sodipodi:role="line"
       id="tspan10"
       x="627.93335"
       y="291.44455"
       style="stroke-width:3">spazio per alcune immagini</tspan></text>
  <path
     d="M 1280,1075.9213 H 0 v 345.4738 h 1280 z"
     fill="#003e78"
     id="path11"
     style="fill:#9aaaba;fill-opacity:1;stroke-width:1" />
</svg>
